<?xml version="1.0" standalone="no"?>
<!DOCTYPE svg PUBLIC "-//W3C//DTD SVG 20010904//EN"
 "http://www.w3.org/TR/2001/REC-SVG-20010904/DTD/svg10.dtd">
<svg version="1.0" xmlns="http://www.w3.org/2000/svg"
 width="700.000000pt" height="700.000000pt" viewBox="0 0 700.000000 700.000000"
 preserveAspectRatio="xMidYMid meet">
<metadata>
Created by potrace 1.11, written by Peter Selinger 2001-2013
</metadata>
<g transform="translate(0.000000,700.000000) scale(0.100000,-0.100000)"
fill="#000000" stroke="none">
<path d="M3299 6996 c-2 -2 -47 -6 -100 -10 -53 -4 -104 -8 -115 -10 -10 -2
-41 -7 -69 -10 -27 -4 -72 -11 -100 -16 -27 -5 -61 -12 -75 -14 -150 -26 -358
-83 -515 -141 -55 -21 -120 -44 -145 -53 -79 -28 -391 -187 -505 -258 -573
-355 -1015 -839 -1313 -1440 -105 -211 -209 -491 -217 -585 -11 -138 72 -255
209 -294 95 -28 189 -7 262 57 54 48 77 89 123 228 140 417 370 789 681 1100
74 75 169 163 210 195 41 33 77 62 80 65 6 7 81 60 170 122 511 352 1189 531
1839 484 58 -4 107 -9 110 -11 3 -1 33 -6 65 -9 220 -24 589 -130 803 -232 43
-20 101 -47 128 -60 28 -13 64 -32 80 -42 17 -9 57 -33 90 -52 286 -163 590
-431 811 -717 38 -48 72 -89 76 -91 5 -2 8 -8 8 -13 0 -5 28 -51 61 -102 56
-83 79 -124 155 -267 58 -112 130 -286 174 -424 16 -50 42 -112 58 -137 120
-188 412 -160 504 48 28 64 28 135 0 228 -217 719 -689 1372 -1317 1821 -255
183 -638 376 -920 464 -22 7 -56 18 -75 25 -74 26 -331 88 -420 101 -19 3 -60
9 -91 15 -31 5 -81 12 -110 15 -30 3 -67 8 -84 10 -35 5 -521 14 -526 10z"/>
<path d="M3350 5927 c-3 -3 -41 -7 -85 -11 -628 -50 -1265 -398 -1666 -911
-115 -147 -110 -140 -185 -265 -123 -203 -239 -488 -278 -681 -30 -149 -46
-241 -53 -311 -14 -152 -8 -488 11 -584 2 -12 7 -39 11 -60 12 -80 17 -101 41
-198 86 -340 240 -648 459 -921 85 -106 280 -301 380 -381 286 -228 621 -390
975 -472 75 -17 114 -24 210 -38 136 -20 452 -26 575 -11 110 13 140 17 165
22 14 3 36 7 50 10 125 23 308 77 437 129 752 304 1318 973 1477 1748 14 67
28 141 30 163 3 22 9 67 13 100 10 81 10 392 0 488 -10 88 -15 123 -34 227 -9
55 -56 229 -78 295 -171 513 -526 971 -980 1268 -268 175 -615 315 -875 353
-19 3 -42 7 -50 9 -8 2 -35 7 -60 10 -25 3 -61 8 -80 11 -45 7 -405 16 -410
11z m305 -581 c228 -18 453 -81 665 -188 52 -26 104 -54 115 -60 124 -80 161
-106 230 -161 250 -202 457 -489 571 -792 39 -104 88 -295 100 -390 4 -33 8
-69 10 -80 5 -32 5 -328 0 -355 -3 -14 -10 -61 -16 -105 -41 -287 -164 -575
-354 -830 -59 -79 -265 -292 -320 -330 -15 -11 -49 -36 -75 -56 -61 -46 -178
-118 -268 -163 -68 -34 -239 -102 -280 -111 -10 -2 -54 -13 -98 -24 -44 -12
-98 -23 -120 -26 -22 -3 -51 -8 -65 -11 -109 -21 -429 -21 -510 1 -8 2 -35 7
-60 10 -188 26 -436 120 -640 243 -229 138 -503 411 -619 618 -9 16 -18 31
-22 34 -15 14 -102 196 -133 280 -39 107 -82 262 -91 330 -3 25 -8 56 -10 70
-12 64 -16 124 -16 240 -1 117 8 257 16 271 2 3 7 28 10 55 16 125 91 358 161
496 43 85 130 227 173 283 17 22 41 54 53 70 43 58 244 252 323 311 155 115
304 198 467 259 112 41 263 82 338 91 30 3 58 8 62 11 5 2 52 7 105 10 54 3
99 6 100 7 3 3 115 -2 198 -8z"/>
<path d="M235 3783 c-96 -18 -198 -107 -222 -195 -9 -31 -8 -305 1 -398 10
-107 27 -230 40 -295 5 -27 18 -104 17 -107 0 -2 51 -196 83 -318 9 -34 76
-221 106 -295 67 -167 200 -424 298 -575 40 -61 177 -251 207 -289 153 -186
284 -323 415 -434 47 -39 87 -75 90 -78 4 -4 164 -127 205 -157 59 -42 105
-72 113 -72 5 0 17 -9 27 -20 10 -11 22 -20 26 -20 5 0 32 -15 61 -33 201
-128 554 -281 833 -362 149 -43 375 -90 488 -101 34 -3 65 -8 68 -10 15 -9
235 -19 414 -19 186 1 331 7 415 19 19 3 55 8 79 11 118 16 206 36 244 55 172
88 216 310 90 450 -44 49 -110 84 -175 93 -21 3 -111 -6 -200 -19 -202 -29
-308 -38 -468 -38 -112 1 -297 11 -341 19 -9 2 -40 6 -69 10 -29 4 -62 9 -74
11 -12 2 -37 7 -56 10 -64 10 -297 73 -397 108 -341 118 -667 303 -932 529
-168 143 -384 378 -508 553 -127 178 -266 431 -322 584 -7 19 -17 44 -22 55
-25 57 -72 207 -103 326 -30 118 -41 172 -61 294 -10 61 -25 248 -30 361 -2
65 -10 134 -16 153 -27 82 -102 158 -180 182 -37 11 -112 17 -144 12z"/>
<path d="M6638 3775 c-89 -24 -139 -68 -188 -165 -20 -38 -23 -61 -24 -175 -1
-139 3 -156 61 -233 47 -63 158 -113 238 -106 121 9 222 87 261 200 15 41 16
231 2 281 -16 62 -60 122 -113 157 -76 50 -151 63 -237 41z"/>
<path d="M6495 2878 c-45 -16 -105 -59 -137 -99 -18 -23 -46 -86 -72 -165
-130 -392 -317 -725 -581 -1034 -40 -47 -228 -235 -288 -288 -126 -110 -325
-248 -495 -342 -62 -35 -131 -81 -154 -103 -136 -135 -97 -369 77 -460 28 -15
62 -22 117 -24 74 -2 79 -1 175 48 714 367 1301 1015 1602 1771 98 246 125
335 125 423 0 65 -4 89 -23 125 -31 58 -82 107 -139 132 -53 24 -160 32 -207
16z"/>
</g>
</svg>
