<?xml version="1.0" encoding="UTF-8"?>
<!DOCTYPE svg PUBLIC "-//W3C//DTD SVG 1.1//EN" "http://www.w3.org/Graphics/SVG/1.1/DTD/svg11.dtd">
<!-- Creator: CorelDRAW X7 -->
<svg xmlns="http://www.w3.org/2000/svg" xml:space="preserve" width="4.95666in" height="1.66666in" version="1.1" style="shape-rendering:geometricPrecision; text-rendering:geometricPrecision; image-rendering:optimizeQuality; fill-rule:evenodd; clip-rule:evenodd"
viewBox="0 0 4957 1667"
 xmlns:xlink="http://www.w3.org/1999/xlink">
 <defs>
  <style type="text/css">
   <![CDATA[
    .fil0 {fill:white;fill-rule:nonzero}
   ]]>
  </style>
 </defs>
 <g id="Layer_x0020_1">
  <metadata id="CorelCorpID_0Corel-Layer"/>
  <g id="_2214145104352">
   <path class="fil0" d="M2346 744c-34,0 -65,-5 -93,-17 -27,-11 -51,-28 -71,-50 -20,-22 -35,-48 -46,-80 -11,-32 -16,-68 -16,-108 0,-40 5,-75 16,-107 11,-31 26,-57 46,-78 20,-22 44,-38 71,-49 28,-11 59,-16 93,-16 34,0 64,5 92,16 28,11 52,28 72,49 20,22 35,48 46,79 11,31 17,66 17,106 0,40 -6,76 -17,108 -11,32 -26,58 -46,80 -20,22 -44,39 -72,50 -28,12 -58,17 -92,17zm0 -111c30,0 53,-13 69,-38 17,-26 26,-61 26,-106 0,-44 -9,-79 -26,-103 -16,-24 -39,-36 -69,-36 -29,0 -53,12 -69,36 -17,24 -25,59 -25,103 0,45 8,80 25,106 16,25 40,38 69,38z"/>
   <path id="1" class="fil0" d="M2660 735l0 -487 132 0 108 217 46 110 3 0c-1,-13 -3,-27 -5,-43 -2,-15 -4,-31 -5,-48 -2,-16 -3,-32 -4,-48 -2,-17 -2,-32 -2,-47l0 -141 123 0 0 487 -132 0 -108 -218 -47 -109 -3 0c3,28 7,59 11,92 4,33 6,64 6,94l0 141 -123 0z"/>
   <polygon id="2" class="fil0" points="3164,735 3164,248 3293,248 3293,627 3477,627 3477,735 "/>
   <polygon id="3" class="fil0" points="3561,735 3561,248 3690,248 3690,735 "/>
   <path id="4" class="fil0" d="M3798 735l0 -487 132 0 108 217 47 110 3 0c-2,-13 -3,-27 -5,-43 -2,-15 -4,-31 -6,-48 -1,-16 -2,-32 -4,-48 -1,-17 -2,-32 -2,-47l0 -141 123 0 0 487 -132 0 -108 -218 -46 -109 -3 0c3,28 6,59 10,92 4,33 6,64 6,94l0 141 -123 0z"/>
   <polygon id="5" class="fil0" points="4303,735 4303,248 4618,248 4618,356 4432,356 4432,432 4591,432 4591,540 4432,540 4432,627 4625,627 4625,735 "/>
   <polygon id="6" class="fil0" points="2141,1428 2141,940 2270,940 2270,1320 2454,1320 2454,1428 "/>
   <polygon id="7" class="fil0" points="2538,1428 2538,940 2667,940 2667,1428 "/>
   <path id="8" class="fil0" d="M2775 1428l0 -488 176 0c25,0 49,2 72,6 22,4 42,10 58,19 17,9 30,21 40,37 9,16 14,36 14,60 0,10 -1,21 -4,32 -3,10 -7,21 -13,30 -5,10 -11,19 -19,26 -7,8 -16,13 -25,17l0 3c23,7 43,19 59,38 17,18 25,43 25,76 0,25 -5,47 -16,65 -10,18 -24,33 -41,45 -17,12 -37,20 -61,26 -24,5 -48,8 -74,8l-191 0zm129 -297l44 0c21,0 36,-5 46,-14 10,-9 15,-21 15,-36 0,-15 -5,-25 -15,-32 -10,-6 -25,-10 -46,-10l-44 0 0 92zm0 198l53 0c50,0 75,-18 75,-54 0,-18 -6,-31 -19,-38 -12,-8 -31,-12 -56,-12l-53 0 0 104z"/>
   <path id="9" class="fil0" d="M3234 1428l0 -488 185 0c26,0 51,3 74,8 24,5 45,13 63,25 17,12 32,28 42,49 11,20 16,45 16,76 0,35 -7,64 -22,87 -14,23 -33,41 -57,54l106 189 -144 0 -84 -164 -50 0 0 164 -129 0zm129 -266l47 0c52,0 78,-21 78,-64 0,-21 -7,-36 -20,-44 -13,-8 -33,-12 -58,-12l-47 0 0 120z"/>
   <path id="10" class="fil0" d="M3825 1191l-8 34 90 0 -8 -34c-6,-24 -12,-49 -18,-77 -6,-27 -12,-53 -18,-78l-3 0c-6,25 -11,51 -17,79 -6,27 -12,52 -18,76zm-187 237l148 -488 156 0 149 488 -137 0 -24 -104 -136 0 -24 104 -132 0z"/>
   <path id="11" class="fil0" d="M4137 1428l0 -488 185 0c26,0 51,3 75,8 23,5 44,13 62,25 18,12 32,28 42,49 11,20 16,45 16,76 0,35 -7,64 -21,87 -15,23 -34,41 -58,54l106 189 -144 0 -84 -164 -49 0 0 164 -130 0zm130 -266l46 0c52,0 78,-21 78,-64 0,-21 -7,-36 -20,-44 -13,-8 -32,-12 -58,-12l-46 0 0 120z"/>
   <path id="12" class="fil0" d="M4681 1428l0 -168 -147 -320 138 0 36 102c6,19 12,37 18,54 6,18 12,36 18,55l3 0c7,-19 13,-37 19,-55 7,-17 13,-35 20,-54l36 -102 135 0 -147 320 0 168 -129 0z"/>
   <g>
    <path class="fil0" d="M834 255c159,0 304,65 409,169 104,105 169,250 169,409 0,160 -65,305 -169,409 -105,105 -250,170 -409,170 -160,0 -305,-65 -410,-170 -104,-104 -169,-249 -169,-409 0,-159 65,-304 169,-409 105,-104 250,-169 410,-169zm311 266c-79,-79 -190,-129 -311,-129 -122,0 -233,50 -312,129 -80,80 -130,191 -130,312 0,122 50,232 130,312 79,80 190,129 312,129 121,0 232,-49 311,-129 80,-80 130,-190 130,-312 0,-121 -50,-232 -130,-312z"/>
    <path class="fil0" d="M168 630c-11,36 -50,57 -86,46 -36,-11 -56,-50 -45,-86 53,-175 161,-323 301,-426 140,-104 312,-164 496,-164 184,0 357,60 497,165l1 0 0 0c140,105 248,254 300,430 11,37 -10,75 -46,86 -36,11 -75,-10 -85,-46 -44,-148 -134,-272 -251,-360l0 0c-118,-87 -262,-138 -416,-138 -154,0 -298,50 -415,137 -117,86 -207,210 -251,356z"/>
    <path class="fil0" d="M1215 1574c-33,17 -75,4 -92,-29 -17,-34 -4,-75 29,-93 86,-44 160,-104 219,-176 60,-72 104,-157 131,-248 11,-37 49,-58 85,-47 36,10 57,48 47,85 -32,110 -86,210 -157,297 -72,87 -160,159 -262,211z"/>
    <path class="fil0" d="M0 833c0,-38 31,-68 69,-68 38,0 68,30 68,68 0,193 78,367 204,493 126,125 300,203 493,203 24,0 46,-1 67,-3 21,-2 44,-5 67,-10 37,-7 73,17 80,55 8,37 -17,73 -54,80 -25,5 -52,9 -80,12 -28,2 -55,4 -80,4 -231,0 -439,-93 -590,-244 -151,-151 -244,-360 -244,-590z"/>
    <path class="fil0" d="M1530 833c0,-38 30,-68 68,-68 38,0 69,30 69,68 0,5 0,1 0,15 0,7 -1,12 -1,16 -1,38 -33,67 -71,66 -37,-2 -67,-33 -66,-71 1,-6 1,-10 1,-13 0,-5 0,1 0,-13z"/>
   </g>
  </g>
 </g>
</svg>
