<?xml version="1.0" encoding="UTF-8"?>
<!DOCTYPE svg PUBLIC "-//W3C//DTD SVG 1.1//EN" "http://www.w3.org/Graphics/SVG/1.1/DTD/svg11.dtd">
<!-- Creator: CorelDRAW X7 -->
<svg xmlns="http://www.w3.org/2000/svg" xml:space="preserve" width="0.999992in" height="0.999992in" version="1.1" style="shape-rendering:geometricPrecision; text-rendering:geometricPrecision; image-rendering:optimizeQuality; fill-rule:evenodd; clip-rule:evenodd"
viewBox="0 0 1000 1000"
 xmlns:xlink="http://www.w3.org/1999/xlink">
 <defs>
  <style type="text/css">
   <![CDATA[
    .fil0 {fill:white;fill-rule:nonzero}
   ]]>
  </style>
 </defs>
 <g id="Layer_x0020_1">
  <metadata id="CorelCorpID_0Corel-Layer"/>
  <path class="fil0" d="M500 153c96,0 183,39 245,102 63,62 102,149 102,245 0,96 -39,183 -102,245 -62,63 -149,102 -245,102 -96,0 -183,-39 -245,-102 -63,-62 -102,-149 -102,-245 0,-96 39,-183 102,-245 62,-63 149,-102 245,-102zm187 160c-48,-48 -114,-78 -187,-78 -73,0 -139,30 -187,78 -48,48 -78,114 -78,187 0,73 30,139 78,187 48,48 114,78 187,78 73,0 139,-30 187,-78 48,-48 78,-114 78,-187 0,-73 -30,-139 -78,-187z"/>
  <path class="fil0" d="M101 378c-7,22 -30,34 -52,27 -21,-6 -34,-29 -27,-51 32,-105 97,-194 181,-256 84,-62 187,-98 297,-98 111,0 215,36 299,99 1,1 1,1 2,2 83,63 147,151 178,256 7,22 -6,45 -28,51 -21,7 -44,-5 -51,-27 -26,-88 -79,-162 -148,-214 -1,-1 -2,-1 -2,-2 -71,-52 -158,-83 -250,-83 -92,0 -178,30 -248,82 -71,52 -125,126 -151,214z"/>
  <path class="fil0" d="M729 944c-20,11 -45,3 -55,-17 -11,-21 -3,-45 17,-56 51,-26 96,-62 131,-105 36,-44 63,-94 79,-149 6,-22 29,-35 51,-28 22,6 34,29 28,50 -19,66 -51,127 -94,179 -43,52 -96,95 -157,126z"/>
  <path class="fil0" d="M0 500c0,-23 18,-41 41,-41 23,0 41,18 41,41 0,115 47,220 123,295 75,76 180,123 295,123 14,0 28,-1 41,-2 12,-2 26,-4 40,-6 22,-5 44,10 48,32 4,23 -10,44 -33,49 -15,3 -31,5 -48,7 -17,1 -33,2 -48,2 -138,0 -263,-56 -354,-146 -90,-91 -146,-216 -146,-354z"/>
  <path class="fil0" d="M918 500c0,-23 18,-41 41,-41 23,0 41,18 41,41 0,4 0,10 0,18 -1,23 -20,41 -43,40 -23,-1 -40,-20 -40,-43 0,-2 1,-7 1,-15z"/>
 </g>
</svg>
