<?xml version="1.0" encoding="UTF-8" standalone="no"?>
<!-- Created with Inkscape (http://www.inkscape.org/) -->

<svg
   xmlns:dc="http://purl.org/dc/elements/1.1/"
   xmlns:cc="http://creativecommons.org/ns#"
   xmlns:rdf="http://www.w3.org/1999/02/22-rdf-syntax-ns#"
   xmlns:svg="http://www.w3.org/2000/svg"
   xmlns="http://www.w3.org/2000/svg"
   xmlns:sodipodi="http://sodipodi.sourceforge.net/DTD/sodipodi-0.dtd"
   xmlns:inkscape="http://www.inkscape.org/namespaces/inkscape"
   id="svg2"
   version="1.1"
   inkscape:version="0.91 r13725"
   xml:space="preserve"
   width="666.65002"
   height="754.38751"
   viewBox="0 0 666.65002 754.38751"
   sodipodi:docname="man-with-magnifiying-glass.svg"><metadata
     id="metadata8"><rdf:RDF><cc:Work
         rdf:about=""><dc:format>image/svg+xml</dc:format><dc:type
           rdf:resource="http://purl.org/dc/dcmitype/StillImage" /><dc:title></dc:title></cc:Work></rdf:RDF></metadata><defs
     id="defs6" /><sodipodi:namedview
     pagecolor="#ffffff"
     bordercolor="#666666"
     borderopacity="1"
     objecttolerance="10"
     gridtolerance="10"
     guidetolerance="10"
     inkscape:pageopacity="0"
     inkscape:pageshadow="2"
     inkscape:window-width="1366"
     inkscape:window-height="705"
     id="namedview4"
     showgrid="false"
     inkscape:zoom="0.64766946"
     inkscape:cx="196.64128"
     inkscape:cy="273.59006"
     inkscape:window-x="0"
     inkscape:window-y="0"
     inkscape:window-maximized="1"
     inkscape:current-layer="g10" /><g
     id="g10"
     inkscape:groupmode="layer"
     inkscape:label="ink_ext_XXXXXX"
     transform="matrix(1.25,0,0,-1.25,0,754.3875)"><g
       id="g12"
       transform="scale(0.1,0.1)"><path
         d="M 2356.65,153.418 C 2356.65,68.6797 1902.51,0 1342.29,0 782.074,0 327.93,68.6797 327.93,153.418 c 0,84.742 454.144,153.422 1014.36,153.422 560.22,0 1014.36,-68.68 1014.36,-153.422"
         style="fill:#e9e8e7;fill-opacity:1;fill-rule:nonzero;stroke:none"
         id="path14"
         inkscape:connector-curvature="0" /><path
         d="m 3340.97,2448.75 c 80.49,-86 82.62,-215.54 -49.4,-248.58 -22.92,-5.69 -44.77,-6.4 -65.92,-3.56 -54.55,6.94 -103.94,37.14 -153.7,63.62 -304.37,162.75 -606.97,331.2 -920.23,476.19 -73.2,33.94 -247.16,141.97 -275.05,4.8 -12.79,-62.55 5.51,-132.73 14.21,-195.63 40.52,-290.7 78.36,-581.56 113.72,-872.97 24.7,-202.21 47.98,-404.59 68.59,-607.33 11.19,-108.739 27.54,-221.739 38.38,-334.751 9.06,-95.769 14.03,-191.367 8.35,-283.949 -4.27,-70.012 -17.42,-151.559 -69.3,-203.27 -73.92,-73.738 -136.28,-9.59 -175.73,58.461 -68.41,117.809 -113.01,257.821 -154.58,387.348 -71.97,224.781 -95.24,465.541 -185.86,684.091 -24.88,60.06 -63.26,152.1 -133.44,171.29 -80.5,22.21 -149.08,-70.89 -183.37,-130.95 -57.4,-100.75 -78.54,-220.34 -117.45,-328.72 C 1051.32,949.449 1002.81,813.691 953.594,678.289 927.293,605.629 903.844,526.191 876.121,449.258 854.449,389.559 830.102,331.629 799.363,279.75 772.535,234.441 738.598,186.988 667.344,218.27 c -62.367,27.371 -72.317,106.25 -74.629,164.011 -2.844,74.258 6.043,150.668 11.726,224.758 23.457,305.801 73.563,608.041 138.778,907.621 60.941,4.27 111.937,35.19 131.484,106.96 26.117,95.6 -22.215,162.41 -78.18,228.68 1.063,2.49 1.954,5.34 2.309,8.35 26.832,305.27 40.156,611.42 65.031,916.86 2.133,24.7 -29.675,32.87 -45.488,18.84 -109.453,-96.66 -212.512,-200.43 -321.254,-297.98 -62.898,-56.33 -123.312,-118.69 -94.348,-208.07 31.094,-96.31 111.586,-170.05 172.711,-247.16 36.243,-45.67 71.961,-91.86 108.207,-137.71 19.723,-24.87 44.598,-50.64 68.051,-77.46 30.211,-34.66 58.281,-71.08 70.012,-109.64 32.512,-106.25 -57.57,-166.85 -156.895,-139.48 -65.566,18.12 -119.761,58.99 -167.027,106.61 -34.469,34.82 -67.344,71.79 -99.504,109.28 -53.66,62.72 -105.187,127.4 -159.203,188.87 C 144.063,2089.83 57.3516,2220.42 53.2656,2369.33 49,2518.22 134.645,2623.77 236.816,2721.5 c 205.582,197.05 414.004,389.3 640.196,562.54 14.57,11.2 19.902,36.07 0,46.03 -318.59,160.44 -443.86,518.66 -326.766,848.62 54.02,152.45 150.5,291.4 292.297,375.98 137.348,82.09 338.487,93.11 494.317,74.8 285.54,-33.76 598.27,-231.69 655.83,-531.63 56.87,-296.55 -100.21,-564.68 -342.92,-724.42 -18.31,-12.08 -16.88,-43 6.39,-48.86 256.93,-63.08 502.32,-205.58 735.08,-326.77 261.03,-135.75 519.02,-277.9 771.69,-428.57 60.06,-35.89 130.59,-69.47 178.04,-120.47"
         style="fill:#ffffff;fill-opacity:1;fill-rule:nonzero;stroke:none"
         id="path16"
         inkscape:connector-curvature="0" /><path
         d="m 1303.06,2294.68 c 24.29,-21.38 52.14,-54.74 81.48,-70.39 0.86,0.79 1.83,1.64 2.98,2.6 5.38,4.44 11.21,8.84 16.18,13.73 15.41,15.13 33.09,28.72 49.55,42.77 20.7,17.67 86.7,53.28 97.55,77.55 14.78,33.07 -22.87,125.35 -31.32,158.65 -12.95,51.03 -27.32,101.69 -42.16,152.19 -24.1,82.02 -58.05,164.99 -74.47,248.95 -10.31,52.73 26.1,66.65 55.65,106.38 -8.03,20.32 -21.6,39 -33.42,56.96 -6.26,9.5 -12.14,22.3 -20.52,30.14 l -0.73,0.67 c -25.49,4.4 -102.89,6.2 -114.46,-2.84 -0.62,-0.48 -21.88,-72.3 -21.81,-74.84 0.45,-16.99 3.36,-16.5 18.27,-35.87 20,-25.98 30.67,-39.13 31.11,-68.69 0.84,-56.82 -21.48,-122.41 -30.89,-178.36 -13.93,-82.81 -27.6,-165.65 -40.6,-248.61 -5.64,-36.03 -11.55,-72.07 -16.18,-108.25 -1.13,-8.77 -4.61,-20.02 -3.52,-28.78 0.36,-2.9 0.39,-4.37 0.3,-5.33 14.86,-25.29 55.71,-49.87 77.01,-68.63"
         style="fill:#6b9bd5;fill-opacity:1;fill-rule:nonzero;stroke:none"
         id="path18"
         inkscape:connector-curvature="0" /><path
         d="m 749.434,1906.1 -1.598,1.96 c -51.352,63.6 -100.926,128.64 -151.922,192.43 -48.152,60.41 -130.598,130.95 -145.168,210.73 -17.594,96.31 119.231,178.22 179.281,234.72 58.465,55.09 116.387,110.88 175.555,165.08 -20.613,-268.14 -33.762,-536.79 -56.148,-804.92 z m 2542.136,294.07 c -22.92,-5.69 -44.77,-6.4 -65.92,-3.56 -54.55,6.94 -103.94,37.14 -153.7,63.62 -304.37,162.75 -606.97,331.2 -920.23,476.19 -73.2,33.94 -247.16,141.97 -275.05,4.8 -12.8,-62.55 5.51,-132.73 14.21,-195.63 40.52,-290.7 78.36,-581.56 113.72,-872.97 24.7,-202.21 47.98,-404.59 68.59,-607.33 11.19,-108.739 27.54,-221.739 38.38,-334.751 9.06,-95.769 14.03,-191.367 8.35,-283.949 -4.27,-70.012 -17.42,-151.559 -69.3,-203.27 -73.92,-73.738 -136.28,-9.59 -175.73,58.461 -68.41,117.809 -113.01,257.821 -154.58,387.348 -71.97,224.781 -95.24,465.541 -185.86,684.091 -24.88,60.06 -63.26,152.1 -133.44,171.29 -80.5,22.21 -149.08,-70.89 -183.37,-130.95 -57.4,-100.75 -78.54,-220.34 -117.45,-328.72 C 1051.32,949.449 1002.81,813.691 953.594,678.289 927.301,605.629 903.844,526.191 876.121,449.258 854.449,389.559 830.102,331.629 799.363,279.75 772.535,234.441 738.598,186.988 667.344,218.27 c -62.367,27.371 -72.317,106.25 -74.629,164.011 -2.844,74.258 6.043,150.668 11.726,224.758 23.457,305.801 73.563,608.041 138.778,907.621 60.941,4.27 111.937,35.19 131.484,106.96 26.121,95.6 -22.215,162.42 -78.18,228.68 1.063,2.49 1.954,5.34 2.309,8.35 26.828,305.27 40.156,611.42 65.031,916.86 2.133,24.7 -29.675,32.87 -45.484,18.84 -109.457,-96.66 -212.516,-200.43 -321.258,-297.98 -62.898,-56.33 -123.312,-118.69 -94.348,-208.07 31.094,-96.31 111.586,-170.05 172.711,-247.16 36.243,-45.67 71.961,-91.86 108.207,-137.7 19.723,-24.88 44.598,-50.65 68.051,-77.47 30.211,-34.66 58.281,-71.08 70.012,-109.64 32.512,-106.25 -57.57,-166.85 -156.895,-139.48 -65.566,18.12 -119.761,58.99 -167.027,106.61 -34.469,34.82 -67.344,71.79 -99.504,109.28 -53.66,62.72 -105.187,127.4 -159.207,188.87 C 144.063,2089.83 57.3516,2220.42 53.2656,2369.33 49,2518.22 134.645,2623.77 236.816,2721.5 c 205.582,197.05 414.004,389.3 640.196,562.54 14.57,11.2 19.902,36.07 0,46.03 -318.59,160.44 -443.86,518.66 -326.766,848.62 54.02,152.45 150.5,291.4 292.297,375.98 137.348,82.09 338.487,93.11 494.317,74.8 285.54,-33.76 598.27,-231.69 655.83,-531.63 56.87,-296.55 -100.21,-564.68 -342.92,-724.42 -18.31,-12.08 -16.88,-43 6.39,-48.86 256.93,-63.08 502.32,-205.58 735.08,-326.77 261.03,-135.75 519.02,-277.9 771.69,-428.57 60.06,-35.89 130.59,-69.47 178.04,-120.47 80.49,-86 82.62,-215.54 -49.4,-248.58 z m 39.09,327.65 c -203.27,146.59 -437.99,260.84 -657.25,380.07 -278.26,151.39 -560.6,304.9 -856.27,419.87 -30.73,11.9 -61.65,23.1 -92.93,32.87 184.09,136.46 309.71,324.63 326.59,558.64 4.62,63.61 0.71,126.69 -11.73,187.64 -33.76,169.33 -130.95,321.78 -283.58,418.8 -250.01,158.85 -532.53,201.32 -820.021,124.74 C 669.477,4579.55 504.41,4300.93 458.738,4045.96 405.789,3750.47 558.777,3450.54 815.531,3302.88 602.488,3136.56 404.727,2954.97 208.914,2768.59 113.145,2677.43 24.4805,2580.59 4.57813,2445.2 -13.3711,2323.3 23.0625,2203.37 85.4258,2099.24 158.453,1977.17 262.402,1873.59 354.977,1765.55 c 6.218,-7.29 12.257,-14.4 18.3,-21.68 76.582,-91.5 158.137,-184.97 277.543,-218.37 12.793,-3.73 25.762,-6.4 38.555,-8.35 C 632.52,1254.53 587.031,989.43 561.09,721.828 547.406,580.391 459.809,174.91 696.484,154.84 c 82.446,-6.93 133.442,63.07 164.36,129.699 22.386,48.16 42.109,97.551 60.765,147.66 24.879,66.641 47.801,134.16 71.965,200.43 49.396,135.582 97.546,271.68 146.766,407.431 41.05,112.83 63.43,242.36 123.32,346.49 36.42,63.43 124.02,135.22 178.03,52.94 28.97,-44.06 48.33,-94.69 65.21,-144.27 43.18,-125.44 67.88,-255.69 97.38,-384.689 31.45,-137.531 73.56,-272.39 124.2,-403.883 38.38,-100.039 74.27,-217.488 148.01,-297.796 138.59,-151.0317 270.26,39.449 290.87,179.636 16.7,113.891 0.53,231.711 -9.77,346.133 -0.71,6.57 -1.25,12.969 -1.78,19.551 -8.35,99.68 -17.94,199.18 -28.07,298.678 -41.23,405.84 -91.87,810.96 -145.7,1215.37 -14.22,106.62 -28.43,213.4 -43.72,319.84 -2.84,20.08 -6.04,40.15 -8.35,60.23 -5.33,51 -7.64,106.79 60.77,100.57 33.94,-3.02 77.12,-32.33 108.21,-46.55 332.09,-151.04 650.69,-330.85 972.48,-502.14 44.59,-23.63 95.77,-44.06 146.58,-52.06 76.58,-12.08 152.63,3.55 205.93,77.12 77.12,106.42 -1.24,236.31 -93.28,302.59"
         style="fill:#2e2d2d;fill-opacity:1;fill-rule:nonzero;stroke:none"
         id="path20"
         inkscape:connector-curvature="0" /><path
         d="m 1550.8,2360.94 c -10.85,-24.27 -76.85,-59.88 -97.55,-77.55 -16.46,-14.05 -34.14,-27.64 -49.55,-42.77 -4.97,-4.89 -10.8,-9.29 -16.18,-13.73 -1.15,-0.96 -2.12,-1.81 -2.98,-2.6 -29.34,15.65 -57.19,49.01 -81.48,70.39 -21.3,18.76 -62.15,43.34 -77.01,68.63 0.09,0.96 0.06,2.43 -0.3,5.33 -1.09,8.76 2.39,20.01 3.52,28.78 4.63,36.18 10.54,72.22 16.18,108.25 13,82.96 26.67,165.8 40.6,248.61 9.41,55.95 31.73,121.54 30.89,178.36 -0.44,29.56 -11.11,42.71 -31.11,68.69 -14.91,19.37 -17.82,18.88 -18.27,35.87 -0.07,2.54 21.19,74.36 21.81,74.84 11.57,9.04 88.97,7.24 114.46,2.84 l 0.73,-0.67 c 8.38,-7.84 14.26,-20.64 20.52,-30.14 11.82,-17.96 25.39,-36.64 33.42,-56.96 -29.55,-39.73 -65.96,-53.65 -55.65,-106.38 16.42,-83.96 50.37,-166.93 74.47,-248.95 14.84,-50.5 29.21,-101.16 42.16,-152.19 8.45,-33.3 46.1,-125.58 31.32,-158.65 z m -106.84,560.82 c -5.8,39.62 25.36,51.33 51.95,89.39 2.02,1.97 3.54,4.37 4.43,7.13 2.19,5.5 1.35,10.71 -1.25,14.97 -11.21,34.17 -44.48,102.74 -76.17,118.63 -24.38,12.22 -121.77,11.74 -146.09,-2.17 -26.03,-14.88 -59.49,-102.44 -54.1,-127.58 5.82,-27.15 53.07,-52.9 56.85,-72.75 2.6,-13.62 -6.84,-37.32 -9.18,-50.61 -24.6,-139.82 -47.93,-279.95 -69.37,-420.29 -4.97,-32.58 -23.7,-86.64 -15.89,-119.8 8.28,-35.14 57.11,-63.53 82.97,-86.37 26.66,-23.54 83.69,-95.38 124.52,-89.89 19.3,2.6 45.16,34.99 58.78,46.72 42.72,36.78 84.87,74.91 132.35,105.52 5.4,3.49 10.8,10.31 9.91,17.27 -18.01,140.74 -61.48,277.92 -102.62,413.27 -15.26,50.23 -39.44,104.45 -47.09,156.56"
         style="fill:#2e2d2d;fill-opacity:1;fill-rule:nonzero;stroke:none"
         id="path22"
         inkscape:connector-curvature="0" /><path
         d="m 1523.94,4021.96 c -1.2,-34.31 52.1,-34.27 53.31,0 2.39,68.55 0.26,136.82 -6.4,205.09 -3.3,33.83 -56.64,34.17 -53.3,0 6.66,-68.28 8.79,-136.54 6.39,-205.09"
         style="fill:#2e2d2d;fill-opacity:1;fill-rule:nonzero;stroke:none"
         id="path24"
         inkscape:connector-curvature="0" /><path
         d="m 1013.43,4205.3 c 7.6,-67.09 10.84,-134.21 8.98,-201.72 -0.95,-34.32 52.36,-34.29 53.31,0 1.86,67.51 -1.38,134.63 -8.99,201.72 -3.81,33.71 -57.16,34.09 -53.3,0"
         style="fill:#2e2d2d;fill-opacity:1;fill-rule:nonzero;stroke:none"
         id="path26"
         inkscape:connector-curvature="0" /><path
         d="m 4243.63,153.418 c 0,-64.2383 -334.28,-116.3086 -746.64,-116.3086 -412.36,0 -746.64,52.0703 -746.64,116.3086 0,64.242 334.28,116.312 746.64,116.312 412.36,0 746.64,-52.07 746.64,-116.312"
         style="fill:#e9e8e7;fill-opacity:1;fill-rule:nonzero;stroke:none"
         id="path28"
         inkscape:connector-curvature="0" /><path
         d="m 4081.2,5393.34 c 11.55,-23.09 17.06,-56.86 9.25,-82.09 -14.22,-46.55 -79.07,-70.36 -120.83,-47.79 -68.41,36.6 -55.44,138.94 15.11,164.18 39.08,9.24 77.11,4.79 96.47,-34.3"
         style="fill:#ffffff;fill-opacity:1;fill-rule:nonzero;stroke:none"
         id="path30"
         inkscape:connector-curvature="0" /><path
         d="m 3628.1,5370.07 c 89.57,-16.7 31.64,-83.87 -16.87,-108.93 -25.23,-12.96 -51.88,-23.09 -76.94,-36.24 -126.16,-66.45 -242.72,-157.96 -329.25,-271.86 -48.68,-64.14 -87.42,-136.29 -110.52,-213.58 -12.97,-43.17 -12.08,-109.8 -41.93,-145.87 -39.09,-47.27 -91.51,-33.23 -105.55,23.98 -9.77,39.81 -5.86,81.91 1.78,121.36 46.73,213.4 170.94,394.11 355.02,514.58 78.36,51.35 224.76,135.21 324.26,116.56"
         style="fill:#ffffff;fill-opacity:1;fill-rule:nonzero;stroke:none"
         id="path32"
         inkscape:connector-curvature="0" /><path
         d="m 4907.09,4010.6 c 107.31,251.6 113.71,556.33 41.75,819.13 -64.32,235.79 -198.29,461.27 -372.25,633.09 -171.82,169.87 -388.78,259.06 -628.11,279.14 l -2.67,0.18 c -250.19,26.48 -486.5,-56.15 -706.47,-169.87 -216.07,-111.59 -398.91,-312.02 -496.81,-534.12 -196.7,-446.34 32.69,-943.33 389.84,-1230.47 358.03,-288.03 906.9,-419.86 1342.4,-238.09 209.85,87.42 350.58,248.76 432.32,441.01 m 162.04,1224.25 c 156.37,-298.87 246.09,-652.82 195.99,-990.06 -43,-290.34 -205.58,-532.88 -442.26,-703.45 -254.44,-183.2 -565.04,-273.11 -876.87,-274.18 -137.36,-0.53 -274.89,16.35 -407.79,50.11 -115.14,28.97 -226.9,70.72 -332.1,124.91 -505.68,260.31 -805.08,811.32 -752.84,1377.95 58.28,633.8 624.74,1125.82 1253.57,1151.4 2.3,0.18 4.44,0.36 6.39,1.06 l 0.53,0 c 280.39,42.83 571.61,-57.38 816.29,-188.16 235.25,-125.45 415.78,-313.61 539.09,-549.58"
         style="fill:#ccccc9;fill-opacity:1;fill-rule:nonzero;stroke:none"
         id="path34"
         inkscape:connector-curvature="0" /><path
         d="m 3993.38,3487.06 c -253.23,8.95 -508.77,90.74 -721.04,221.87 212.54,-131.27 468.34,-213.05 721.88,-221.84 -0.27,-0.01 -0.57,-0.02 -0.84,-0.03 m -721.39,222.09 c -0.05,0.03 -0.12,0.08 -0.17,0.11 0.04,-0.03 0.12,-0.08 0.17,-0.11 m -555.26,1263.29 c 7.61,22 16.19,43.92 25.8,65.71 97.9,222.1 280.74,422.53 496.81,534.12 0.33,0.18 0.65,0.34 0.99,0.52 -0.33,-0.17 -0.67,-0.35 -0.99,-0.52 -216.07,-111.59 -398.91,-312.02 -496.81,-534.12 -9.61,-21.79 -18.19,-43.71 -25.8,-65.71 m 523.68,600.38 c 0.3,0.16 0.64,0.34 0.95,0.5 -0.32,-0.17 -0.64,-0.33 -0.95,-0.5 m 1.06,0.56 c 0.31,0.16 0.63,0.32 0.94,0.48 -0.31,-0.16 -0.63,-0.32 -0.94,-0.48 m 1.05,0.54 c 0.33,0.16 0.66,0.33 0.98,0.5 -0.32,-0.16 -0.66,-0.34 -0.98,-0.5 m 1.02,0.52 c 0.34,0.17 0.68,0.35 1.01,0.52 -0.34,-0.17 -0.67,-0.35 -1.01,-0.52 m 1.04,0.54 c 176.65,90.81 363.78,161.22 560.16,170.97 0.13,0 0.24,-0.01 0.37,-0.02 -196.51,-9.68 -383.77,-80.08 -560.53,-170.95"
         style="fill:#e9e8e7;fill-opacity:1;fill-rule:nonzero;stroke:none"
         id="path36"
         inkscape:connector-curvature="0" /><path
         d="m 3948.86,3486.29 c -326.72,0 -661.73,124 -907.09,321.39 -357.15,287.14 -586.54,784.13 -389.85,1230.47 97.91,222.1 280.74,422.53 496.81,534.12 192.01,99.26 396.46,174.76 611.72,174.76 14.7,0 29.49,-0.36 44.29,-1.08 -196.38,-9.75 -383.51,-80.16 -560.16,-170.97 l -0.03,-0.02 c -0.33,-0.17 -0.67,-0.35 -1.01,-0.52 -0.02,-0.01 -0.02,-0.01 -0.04,-0.02 -0.32,-0.17 -0.65,-0.34 -0.98,-0.5 -0.04,-0.03 -0.07,-0.04 -0.11,-0.06 -0.31,-0.16 -0.63,-0.32 -0.94,-0.48 -0.04,-0.02 -0.07,-0.04 -0.11,-0.06 -0.31,-0.16 -0.65,-0.34 -0.95,-0.5 -0.04,-0.01 -0.05,-0.02 -0.08,-0.03 -0.34,-0.18 -0.66,-0.34 -0.99,-0.52 -216.07,-111.59 -398.91,-312.02 -496.81,-534.12 -9.61,-21.79 -18.19,-43.71 -25.8,-65.71 -148.19,-428.67 75.93,-891.64 415.63,-1164.76 43.82,-35.24 90.48,-68.15 139.46,-98.42 0.05,-0.03 0.12,-0.08 0.17,-0.11 0.13,-0.08 0.22,-0.14 0.35,-0.22 212.27,-131.13 467.81,-212.92 721.04,-221.87 -14.83,-0.52 -29.65,-0.77 -44.52,-0.77"
         style="fill:#b7b6b5;fill-opacity:1;fill-rule:nonzero;stroke:none"
         id="path38"
         inkscape:connector-curvature="0" /><path
         d="m 4530.04,5784.43 c -0.33,0.18 -0.64,0.34 -0.97,0.52 0.32,-0.17 0.65,-0.35 0.97,-0.52"
         style="fill:#e9e8e7;fill-opacity:1;fill-rule:nonzero;stroke:none"
         id="path40"
         inkscape:connector-curvature="0" /><path
         d="m 3940.6,3267.15 c -16.48,0 -32.97,0.28 -49.45,0.78 299.74,7.57 596.4,97.22 841.11,273.41 236.67,170.57 399.26,413.11 442.26,703.45 50.11,337.24 -39.63,691.19 -195.99,990.06 -123.32,235.97 -303.84,424.13 -539.1,549.58 -192.44,102.86 -413.69,186.48 -635.81,196.79 15.08,0.73 30.14,1.08 45.23,1.08 236.86,0 474.89,-87.73 680.22,-197.35 0.33,-0.18 0.64,-0.34 0.97,-0.52 l 0,0 c 235.25,-125.45 415.78,-313.61 539.09,-549.58 126.89,-242.54 209.9,-521.35 209.91,-798.07 0,-64.27 -4.48,-128.43 -13.92,-191.99 -43,-290.34 -205.58,-532.88 -442.26,-703.45 -254.44,-183.2 -565.04,-273.11 -876.87,-274.18 l 0,0 c -1.8,0 -3.59,-0.01 -5.39,-0.01"
         style="fill:#b7b6b5;fill-opacity:1;fill-rule:nonzero;stroke:none"
         id="path42"
         inkscape:connector-curvature="0" /><path
         d="m 3729.75,5330.09 c 3.55,196.7 -340.27,36.6 -418.1,-9.06 -212.86,-124.38 -361.94,-328.72 -414.18,-567.88 -0.36,-1.07 -0.36,-2.31 -0.54,-3.38 -12.79,-67.52 -21.68,-179.99 43.36,-226.02 50.11,-35.18 119.05,-10.3 152.45,35.19 26.13,35.35 31.81,76.94 41.05,118.69 12.62,56.68 32.34,110.52 60.23,161.51 53.49,97.38 132.56,180 220.86,246.99 62.73,47.44 131.5,89.02 203.64,120.64 59.52,25.95 109.8,47.44 111.23,123.32 z m 384.68,-80.67 c 38.56,41.04 39.62,104.12 20.08,154.58 -26.47,68.59 -89.55,90.09 -157.07,76.41 -2.14,-0.18 -4.44,-0.53 -6.93,-1.42 -2.84,-0.71 -5.33,-1.6 -7.46,-3.02 -81.74,-33.94 -120.3,-134.15 -69.66,-211.63 51.17,-78.53 158.14,-81.55 221.04,-14.92 z m 710.03,-233.12 c 133.98,-286.79 168.98,-680.18 38.73,-987.22 -56.14,-132.37 -143.03,-248.76 -265.99,-333.52 -374.38,-258.17 -936.75,-168.09 -1301.9,60.95 -370.47,232.41 -652.45,669.16 -550.64,1118.88 55.97,246.99 237.74,473.71 448.47,608.75 219.62,140.73 493.97,232.77 755.35,204.52 409.03,-34.3 706.82,-310.77 875.98,-672.36"
         style="fill:#f5f6f5;fill-opacity:1;fill-rule:nonzero;stroke:none"
         id="path44"
         inkscape:connector-curvature="0" /><path
         d="m 3982.59,2283.86 c 2.14,-103.95 4.79,-207.89 1.25,-312.01 -7.29,-217.32 -35.36,-435.16 -55.09,-651.75 -18.13,-201.14 -28.43,-405.299 -60.59,-604.838 -25.77,-160.453 -53.31,-390.91 -184.44,-503.571 -80.49,-69.3 -233.48,-37.66 -329.25,-20.429 -87.42,15.636 -214.11,32.347 -262.26,115.847 -80.84,139.84 -34.83,356.969 -20.97,508.539 51.18,420.222 68.06,847.382 167.38,1260.322 20.62,86.17 43.36,172.35 68.59,257.46 29.5,99.86 56.32,233.3 166.67,269.9 1.25,0.54 2.66,1.08 4.09,1.43 117.44,35.71 281.98,27.36 390.55,-43.71 14.21,-9.07 27.36,-19.37 39.44,-30.75 72.67,-68.76 72.67,-152.62 74.63,-246.44"
         style="fill:#7a7b7c;fill-opacity:1;fill-rule:nonzero;stroke:none"
         id="path46"
         inkscape:connector-curvature="0" /><path
         d="m 3681.8,210.07 c 0.01,0 0.02,0.008 0.02,0.02 -0.01,-0.012 -0.01,-0.012 -0.02,-0.02 m 0.19,0.16 c 0.02,0.02 0.04,0.032 0.06,0.051 -0.02,-0.019 -0.04,-0.031 -0.06,-0.051 m 0.19,0.161 c 0.07,0.058 0.14,0.109 0.21,0.168 -0.07,-0.059 -0.14,-0.118 -0.21,-0.168 m 0.22,0.179 c 0.07,0.059 0.14,0.11 0.2,0.168 -0.07,-0.058 -0.13,-0.109 -0.2,-0.168 m 0.23,0.192 c 0.06,0.058 0.12,0.109 0.19,0.156 -0.07,-0.047 -0.13,-0.098 -0.19,-0.156 m 0.23,0.199 c 0.06,0.047 0.12,0.098 0.18,0.148 -0.06,-0.05 -0.12,-0.101 -0.18,-0.148 m 0.21,0.18 c 0.06,0.05 0.12,0.097 0.18,0.148 -0.06,-0.051 -0.12,-0.098 -0.18,-0.148 m 0.22,0.187 c 0.07,0.051 0.13,0.102 0.19,0.16 -0.06,-0.058 -0.12,-0.109 -0.19,-0.16"
         style="fill:#d0d0ce;fill-opacity:1;fill-rule:nonzero;stroke:none"
         id="path48"
         inkscape:connector-curvature="0" /><path
         d="m 3683.5,211.512 c 0.08,0.058 0.15,0.117 0.22,0.179 17.88,15.36 33.83,32.899 48.11,52.168 l 0,0 c -14.28,-19.269 -30.23,-36.808 -48.11,-52.168 -0.07,-0.062 -0.14,-0.121 -0.22,-0.179"
         style="fill:#d0d0ce;fill-opacity:1;fill-rule:nonzero;stroke:none"
         id="path50"
         inkscape:connector-curvature="0" /><path
         d="m 3867.96,2561.41 c -0.05,0.03 -0.11,0.07 -0.17,0.11 0.06,-0.04 0.12,-0.08 0.17,-0.11 m -0.68,0.44 c -0.06,0.04 -0.12,0.08 -0.18,0.12 0.06,-0.04 0.12,-0.08 0.18,-0.12 m -0.59,0.39 c -0.06,0.03 -0.11,0.06 -0.16,0.1 0.05,-0.04 0.1,-0.07 0.16,-0.1 m -0.68,0.43 c -0.06,0.04 -0.12,0.07 -0.18,0.11 0.06,-0.04 0.12,-0.07 0.18,-0.11 m -0.72,0.46 c -0.03,0.02 -0.05,0.03 -0.09,0.05 0.03,-0.01 0.06,-0.03 0.09,-0.05 m -0.64,0.41 c -0.02,0.01 -0.03,0.02 -0.05,0.03 0.01,-0.01 0.03,-0.02 0.05,-0.03"
         style="fill:#e9e8e7;fill-opacity:1;fill-rule:nonzero;stroke:none"
         id="path52"
         inkscape:connector-curvature="0" /><path
         d="m 3559.64,169.711 c 82.86,135.359 107.16,327.027 130.01,469.359 35.75,221.828 47.21,448.8 67.36,672.42 21.92,240.8 53.14,482.98 61.24,724.58 3.95,115.75 0.99,231.32 -1.39,346.87 -1.69,81.06 -2.24,155.39 -40.25,220.39 31.56,-9.78 61.38,-22.92 87.99,-39.76 0.02,-0.01 0.03,-0.02 0.05,-0.03 0.18,-0.12 0.37,-0.24 0.55,-0.36 0.04,-0.02 0.06,-0.03 0.09,-0.05 0.18,-0.12 0.36,-0.23 0.54,-0.35 0.06,-0.04 0.12,-0.07 0.18,-0.11 0.17,-0.11 0.35,-0.22 0.52,-0.33 0.05,-0.04 0.1,-0.07 0.16,-0.1 0.13,-0.09 0.27,-0.18 0.41,-0.27 0.06,-0.04 0.12,-0.08 0.18,-0.12 0.17,-0.11 0.34,-0.22 0.51,-0.33 0.06,-0.04 0.12,-0.08 0.17,-0.11 0.19,-0.12 0.37,-0.24 0.56,-0.36 14.21,-9.07 27.36,-19.37 39.44,-30.75 72.67,-68.76 72.67,-152.62 74.63,-246.44 1.38,-67 2.97,-133.99 2.98,-201.04 0,-36.97 -0.47,-73.96 -1.73,-110.97 -7.29,-217.32 -35.36,-435.16 -55.09,-651.75 -18.13,-201.14 -28.43,-405.299 -60.59,-604.838 -22.25,-138.582 -45.84,-329.383 -136.33,-451.403 -14.28,-19.269 -30.23,-36.808 -48.11,-52.168 -0.07,-0.062 -0.14,-0.121 -0.22,-0.179 0,-0.012 -0.01,-0.024 -0.02,-0.024 -0.06,-0.058 -0.12,-0.109 -0.19,-0.16 -0.01,-0.019 -0.03,-0.027 -0.04,-0.039 -0.06,-0.051 -0.12,-0.098 -0.18,-0.148 -0.01,-0.012 -0.02,-0.02 -0.03,-0.032 -0.06,-0.05 -0.12,-0.101 -0.18,-0.148 -0.02,-0.012 -0.03,-0.031 -0.04,-0.043 -0.07,-0.047 -0.13,-0.098 -0.19,-0.156 -0.01,0 -0.02,-0.012 -0.03,-0.024 -0.06,-0.058 -0.13,-0.109 -0.2,-0.168 -0.01,-0.011 -0.01,-0.011 -0.01,-0.011 -0.07,-0.059 -0.14,-0.11 -0.21,-0.168 -0.04,-0.039 -0.09,-0.082 -0.13,-0.11 -0.02,-0.019 -0.04,-0.031 -0.06,-0.051 -0.05,-0.05 -0.11,-0.101 -0.17,-0.14 0,-0.012 -0.01,-0.02 -0.02,-0.02 -32.22,-26.718 -75.64,-37.711 -122.16,-40.359"
         style="fill:#6c6d6f;fill-opacity:1;fill-rule:nonzero;stroke:none"
         id="path54"
         inkscape:connector-curvature="0" /><path
         d="m 3918.09,3213.86 c -7.47,-196.7 -47.62,-390.91 -57.21,-587.42 -59,28.95 -126.34,43.88 -190.84,46.38 -65.03,2.66 -125.09,0.7 -178.21,-12.62 12.43,200.43 41.57,399.26 57.21,599.15 120.65,-28.61 244.85,-43.89 369.05,-45.49"
         style="fill:#ccccc9;fill-opacity:1;fill-rule:nonzero;stroke:none"
         id="path56"
         inkscape:connector-curvature="0" /><path
         d="m 3860.88,2626.44 0,0 c 9.59,196.51 49.74,390.72 57.21,587.42 -32.55,0.42 -65.1,1.78 -97.58,4.07 0.01,0.02 0.01,0.03 0.01,0.06 32.48,-2.29 65.03,-3.71 97.57,-4.13 -7.47,-196.7 -47.62,-390.91 -57.21,-587.42 m -0.67,0.32 c -27.92,13.64 -57.72,24.05 -88.17,31.59 0,0.04 0.01,0.07 0.01,0.1 30.46,-7.54 60.24,-18.04 88.16,-31.69"
         style="fill:#e9e8e7;fill-opacity:1;fill-rule:nonzero;stroke:none"
         id="path58"
         inkscape:connector-curvature="0" /><path
         d="m 3860.88,2626.44 0,0 c -0.22,0.11 -0.44,0.21 -0.67,0.32 -27.92,13.65 -57.7,24.15 -88.16,31.69 13.26,186.75 38.91,372.37 48.46,559.48 32.48,-2.29 65.03,-3.65 97.58,-4.07 -7.47,-196.7 -47.62,-390.91 -57.21,-587.42"
         style="fill:#b7b6b5;fill-opacity:1;fill-rule:nonzero;stroke:none"
         id="path60"
         inkscape:connector-curvature="0" /><path
         d="m 5265.12,4244.79 c -43,-290.34 -205.58,-532.88 -442.26,-703.45 -254.44,-183.2 -565.04,-273.11 -876.87,-274.17 -137.36,-0.54 -274.89,16.34 -407.79,50.1 -115.14,28.97 -226.9,70.72 -332.1,124.91 -505.68,260.32 -805.08,811.32 -752.84,1377.95 58.28,633.8 624.74,1125.82 1253.57,1151.4 2.3,0.18 4.44,0.36 6.39,1.07 l 0.53,0 c 280.39,42.82 571.61,-57.39 816.29,-188.17 235.25,-125.45 415.78,-313.61 539.09,-549.58 156.37,-298.87 246.09,-652.82 195.99,-990.06 z M 3860.88,2626.44 c -59,28.95 -126.34,43.88 -190.84,46.37 -65.03,2.67 -125.09,0.71 -178.21,-12.61 12.43,200.43 41.57,399.26 57.21,599.15 120.65,-28.61 244.85,-43.89 369.06,-45.49 -7.48,-196.7 -47.63,-390.91 -57.22,-587.42 z m 121.71,-342.58 c 2.14,-103.95 4.79,-207.89 1.25,-312.01 -7.29,-217.32 -35.36,-435.16 -55.09,-651.75 -18.13,-201.14 -28.43,-405.299 -60.59,-604.838 -25.77,-160.453 -53.31,-390.91 -184.44,-503.571 -80.49,-69.3 -233.48,-37.66 -329.25,-20.429 -87.42,15.636 -214.11,32.347 -262.26,115.847 -80.84,139.852 -34.83,356.969 -20.97,508.539 51.18,420.222 68.06,847.382 167.38,1260.322 20.62,86.17 43.36,172.35 68.59,257.46 29.5,99.86 56.32,233.3 166.67,269.9 1.25,0.54 2.66,1.08 4.09,1.43 117.44,35.71 281.98,27.36 390.55,-43.71 14.21,-9.07 27.36,-19.37 39.44,-30.75 72.67,-68.76 72.67,-152.62 74.63,-246.44 z m 1226.38,2769.57 c -118.7,307.58 -308.81,578.55 -597.55,746.81 -267.78,156.19 -593.47,270.44 -906.02,224.6 -565.39,-23.81 -1121.72,-422.89 -1266.71,-979.94 -147.84,-567.7 80.31,-1196.7 557.04,-1536.97 151.2,-107.85 321.96,-186.57 501.24,-235.26 -15.98,-208.96 -47.08,-416.85 -59.34,-626.33 -0.18,-1.78 0,-3.55 0.36,-5.16 -56.15,-26.3 -101.47,-71.96 -132.56,-148.19 -214.82,-526.65 -219.62,-1121.02 -287.49,-1677.342 -14.92,-161.687 -53.49,-365.847 20.08,-519.378 68.23,-142.668 281.63,-160.09 420.4,-171.809 82.98,-7.109 168.27,-17.949 240.23,31.437 66.46,45.661 107.33,122.961 135.75,196.161 76.59,196 97.37,414.019 116.2,621.73 25.24,277.011 51,554.201 75.52,831.391 10.67,121.18 13.86,242 12.08,363.72 -1.41,95.23 12.09,209.31 -24.16,299.93 -21.33,53.13 -57.21,95.06 -101.28,126.69 l 0,0.53 c 6.75,207.01 50.81,411.16 58.64,617.99 260.12,4.8 518.66,69.65 745.39,196.69 246.27,138.07 457.54,351.47 552.24,621.19 115.49,329.25 62.72,702.75 -60.06,1021.51"
         style="fill:#2e2d2d;fill-opacity:1;fill-rule:nonzero;stroke:none"
         id="path62"
         inkscape:connector-curvature="0" /><path
         d="m 4863.19,4029.08 c -56.14,-132.37 -143.03,-248.76 -265.99,-333.52 -374.38,-258.17 -936.75,-168.09 -1301.9,60.95 -370.47,232.41 -652.45,669.16 -550.64,1118.88 55.97,246.99 237.74,473.71 448.47,608.75 219.62,140.73 493.97,232.77 755.35,204.52 409.03,-34.3 706.82,-310.77 875.98,-672.36 133.98,-286.79 168.98,-680.18 38.73,-987.22 z m -286.6,1433.74 c -171.82,169.87 -388.78,259.06 -628.11,279.14 l -2.67,0.18 c -250.19,26.47 -486.5,-56.15 -706.47,-169.87 -216.07,-111.58 -398.91,-312.02 -496.81,-534.12 -196.7,-446.34 32.69,-943.33 389.83,-1230.47 358.04,-288.02 906.91,-419.87 1342.41,-238.09 209.85,87.42 350.58,248.76 432.32,441.01 107.31,251.6 113.71,556.33 41.75,819.13 -64.32,235.79 -198.29,461.27 -372.25,633.09"
         style="fill:#2e2d2d;fill-opacity:1;fill-rule:nonzero;stroke:none"
         id="path64"
         inkscape:connector-curvature="0" /><path
         d="m 4090.44,5311.25 c -14.21,-46.55 -79.06,-70.36 -120.82,-47.79 -68.41,36.6 -55.44,138.94 15.11,164.18 39.08,9.24 77.11,4.79 96.47,-34.29 11.55,-23.1 17.06,-56.87 9.24,-82.1 z m -113,169.16 c -2.31,-0.36 -4.63,-0.89 -6.93,-1.43 -2.49,-0.88 -4.98,-1.95 -7.46,-3.01 -81.74,-33.94 -120.3,-134.15 -69.66,-211.62 51.18,-78.54 158.14,-81.56 221.04,-14.93 38.56,41.04 39.62,104.12 20.08,154.58 -26.47,68.59 -89.55,90.09 -157.07,76.41"
         style="fill:#2e2d2d;fill-opacity:1;fill-rule:nonzero;stroke:none"
         id="path66"
         inkscape:connector-curvature="0" /><path
         d="m 3611.23,5261.15 c -25.23,-12.97 -51.88,-23.1 -76.94,-36.25 -126.16,-66.45 -242.72,-157.96 -329.25,-271.86 -48.68,-64.14 -87.42,-136.29 -110.52,-213.58 -12.97,-43.17 -12.08,-109.8 -41.93,-145.87 -39.09,-47.27 -91.51,-33.23 -105.55,23.98 -9.77,39.81 -5.86,81.91 1.78,121.36 46.73,213.4 170.94,394.11 355.02,514.58 78.35,51.35 224.76,135.21 324.26,116.56 89.57,-16.7 31.64,-83.87 -16.87,-108.92 z m -299.58,59.88 c -212.86,-124.38 -361.94,-328.72 -414.18,-567.88 -0.36,-1.07 -0.36,-2.31 -0.54,-3.38 -12.79,-67.52 -21.68,-179.99 43.36,-226.01 50.11,-35.19 119.05,-10.31 152.45,35.18 26.13,35.35 31.81,76.94 41.05,118.69 12.62,56.68 32.34,110.52 60.23,161.52 53.49,97.37 132.56,179.99 220.86,246.98 62.73,47.44 131.5,89.02 203.64,120.64 59.52,25.95 109.8,47.44 111.23,123.32 3.55,196.7 -340.27,36.6 -418.1,-9.06"
         style="fill:#2e2d2d;fill-opacity:1;fill-rule:nonzero;stroke:none"
         id="path68"
         inkscape:connector-curvature="0" /></g></g></svg>