<?xml version="1.0" encoding="UTF-8" standalone="no"?>
<!-- Created with Inkscape (http://www.inkscape.org/) -->

<svg
   xmlns:dc="http://purl.org/dc/elements/1.1/"
   xmlns:cc="http://creativecommons.org/ns#"
   xmlns:rdf="http://www.w3.org/1999/02/22-rdf-syntax-ns#"
   xmlns:svg="http://www.w3.org/2000/svg"
   xmlns="http://www.w3.org/2000/svg"
   xmlns:sodipodi="http://sodipodi.sourceforge.net/DTD/sodipodi-0.dtd"
   xmlns:inkscape="http://www.inkscape.org/namespaces/inkscape"
   id="svg2"
   version="1.1"
   inkscape:version="0.91 r13725"
   xml:space="preserve"
   width="471.91901"
   height="290.90375"
   viewBox="0 0 471.91901 290.90375"
   sodipodi:docname="error-with-laptop.svg"><metadata
     id="metadata8"><rdf:RDF><cc:Work
         rdf:about=""><dc:format>image/svg+xml</dc:format><dc:type
           rdf:resource="http://purl.org/dc/dcmitype/StillImage" /><dc:title></dc:title></cc:Work></rdf:RDF></metadata><defs
     id="defs6"><clipPath
       clipPathUnits="userSpaceOnUse"
       id="clipPath18"><path
         d="M 0,500 500,500 500,0 0,0 0,500 Z"
         id="path20"
         inkscape:connector-curvature="0" /></clipPath><clipPath
       clipPathUnits="userSpaceOnUse"
       id="clipPath26"><path
         d="m 68.1396,406.421 362.9814,0 0,-217.801 -362.9814,0 0,217.801 z"
         id="path28"
         inkscape:connector-curvature="0" /></clipPath><clipPath
       clipPathUnits="userSpaceOnUse"
       id="clipPath42"><path
         d="m 65.6978,421.343 377.5352,0 0,-229.625 -377.5352,0 0,229.625 z"
         id="path44"
         inkscape:connector-curvature="0" /></clipPath><clipPath
       clipPathUnits="userSpaceOnUse"
       id="clipPath266"><path
         d="M 0,500 500,500 500,0 0,0 0,500 Z"
         id="path268"
         inkscape:connector-curvature="0" /></clipPath><clipPath
       clipPathUnits="userSpaceOnUse"
       id="clipPath286"><path
         d="M 0,500 500,500 500,0 0,0 0,500 Z"
         id="path288"
         inkscape:connector-curvature="0" /></clipPath></defs><sodipodi:namedview
     pagecolor="#ffffff"
     bordercolor="#666666"
     borderopacity="1"
     objecttolerance="10"
     gridtolerance="10"
     guidetolerance="10"
     inkscape:pageopacity="0"
     inkscape:pageshadow="2"
     inkscape:window-width="1366"
     inkscape:window-height="705"
     id="namedview4"
     showgrid="false"
     fit-margin-top="0"
     fit-margin-left="0"
     fit-margin-right="0"
     fit-margin-bottom="0"
     inkscape:zoom="0.78175"
     inkscape:cx="292.91772"
     inkscape:cy="149.77551"
     inkscape:window-x="0"
     inkscape:window-y="0"
     inkscape:window-maximized="1"
     inkscape:current-layer="g10" /><g
     id="g10"
     inkscape:groupmode="layer"
     inkscape:label="218339-P106FR-372"
     transform="matrix(1.25,0,0,-1.25,-68.051255,554.82074)"><g
       id="g14"
       transform="translate(-11.256796,22.513591)"><g
         id="g16"
         clip-path="url(#clipPath18)"><g
           id="g22"><g
             id="g24" /><g
             id="g30"><g
               clip-path="url(#clipPath26)"
               id="g32"
               style="opacity:0.22000098"><g
                 transform="translate(268.7715,387.145)"
                 id="g34"><path
                   d="m 0,0 c -39.139,-12.496 -163.11,49.122 -153.408,-35.044 1.516,-12.515 9.577,-30.192 2.769,-41.876 -4.932,-8.75 -13.974,-13.877 -22.708,-17.279 -22.814,-9.275 -31.308,-26.682 -25.531,-51.526 15.454,-66.945 99.581,-51.069 143.745,-31.219 31.408,14.772 68.45,17.309 100.973,4.813 25.479,-10.175 41.362,-31.52 71.266,-25.267 26.521,5.322 30.523,30.36 22.779,53.668 -4.4,14.42 -7.559,20.513 1.168,34.432 7.353,13.824 20.297,24.299 21.293,40.494 0.217,17.541 -7.843,35.217 -23.442,41.861 -12.762,5.435 -24.331,3.241 -36.956,6.583 C 73.865,-12.468 55.818,31.165 20.98,16.159 12.294,12.059 7.406,2.61 -2.059,-0.142"
                   style="fill:#84dcf2;fill-opacity:1;fill-rule:nonzero;stroke:none"
                   id="path36"
                   inkscape:connector-curvature="0" /></g></g></g></g><g
           id="g38"><g
             id="g40" /><g
             id="g46"><g
               clip-path="url(#clipPath42)"
               id="g48"
               style="opacity:0.30000299"><g
                 transform="translate(254.5801,393.1558)"
                 id="g50"><path
                   d="M 0,0 C 3.547,0 3.547,5.5 0,5.5 -3.547,5.5 -3.547,0 0,0"
                   style="fill:#84dcf2;fill-opacity:1;fill-rule:nonzero;stroke:none"
                   id="path52"
                   inkscape:connector-curvature="0" /></g><g
                 transform="translate(91.6426,308.5933)"
                 id="g54"><path
                   d="M 0,0 C 7.094,0 7.094,11 0,11 -7.094,11 -7.094,0 0,0"
                   style="fill:#84dcf2;fill-opacity:1;fill-rule:nonzero;stroke:none"
                   id="path56"
                   inkscape:connector-curvature="0" /></g><g
                 transform="translate(422.3301,264.731)"
                 id="g58"><path
                   d="M 0,0 C 7.094,0 7.094,11 0,11 -7.094,11 -7.094,0 0,0"
                   style="fill:#84dcf2;fill-opacity:1;fill-rule:nonzero;stroke:none"
                   id="path60"
                   inkscape:connector-curvature="0" /></g><g
                 transform="translate(236.0176,395.9058)"
                 id="g62"><path
                   d="M 0,0 C 7.094,0 7.094,11 0,11 -7.094,11 -7.094,0 0,0"
                   style="fill:#84dcf2;fill-opacity:1;fill-rule:nonzero;stroke:none"
                   id="path64"
                   inkscape:connector-curvature="0" /></g><g
                 transform="translate(433.3301,282.1934)"
                 id="g66"><path
                   d="M 0,0 C 9.222,0 9.222,14.3 0,14.3 -9.222,14.3 -9.222,0 0,0"
                   style="fill:#84dcf2;fill-opacity:1;fill-rule:nonzero;stroke:none"
                   id="path68"
                   inkscape:connector-curvature="0" /></g><g
                 transform="translate(73.0806,290.4434)"
                 id="g70"><path
                   d="M 0,0 C 9.222,0 9.222,14.3 0,14.3 -9.222,14.3 -9.222,0 0,0"
                   style="fill:#84dcf2;fill-opacity:1;fill-rule:nonzero;stroke:none"
                   id="path72"
                   inkscape:connector-curvature="0" /></g><g
                 transform="translate(378.3301,376.3809)"
                 id="g74"><path
                   d="M 0,0 C 9.222,0 9.222,14.3 0,14.3 -9.222,14.3 -9.222,0 0,0"
                   style="fill:#84dcf2;fill-opacity:1;fill-rule:nonzero;stroke:none"
                   id="path76"
                   inkscape:connector-curvature="0" /></g><g
                 transform="translate(251.8301,404.8433)"
                 id="g78"><path
                   d="M 0,0 C 10.641,0 10.641,16.5 0,16.5 -10.64,16.5 -10.64,0 0,0"
                   style="fill:#84dcf2;fill-opacity:1;fill-rule:nonzero;stroke:none"
                   id="path80"
                   inkscape:connector-curvature="0" /></g><g
                 transform="translate(439.2432,269.269)"
                 id="g82"><path
                   d="M 0,0 C 5.32,0 5.32,8.25 0,8.25 -5.32,8.25 -5.32,0 0,0"
                   style="fill:#84dcf2;fill-opacity:1;fill-rule:nonzero;stroke:none"
                   id="path84"
                   inkscape:connector-curvature="0" /></g><g
                 transform="translate(71.1553,313.4058)"
                 id="g86"><path
                   d="M 0,0 C 5.32,0 5.32,8.25 0,8.25 -5.32,8.25 -5.32,0 0,0"
                   style="fill:#84dcf2;fill-opacity:1;fill-rule:nonzero;stroke:none"
                   id="path88"
                   inkscape:connector-curvature="0" /></g><g
                 transform="translate(395.5176,368.4058)"
                 id="g90"><path
                   d="M 0,0 C 5.32,0 5.32,8.25 0,8.25 -5.32,8.25 -5.32,0 0,0"
                   style="fill:#84dcf2;fill-opacity:1;fill-rule:nonzero;stroke:none"
                   id="path92"
                   inkscape:connector-curvature="0" /></g><g
                 transform="translate(394.1426,383.5308)"
                 id="g94"><path
                   d="M 0,0 C 3.547,0 3.547,5.5 0,5.5 -3.547,5.5 -3.547,0 0,0"
                   style="fill:#84dcf2;fill-opacity:1;fill-rule:nonzero;stroke:none"
                   id="path96"
                   inkscape:connector-curvature="0" /></g><g
                 transform="translate(115.5684,393.019)"
                 id="g98"><path
                   d="M 0,0 C 7.094,0 7.094,11 0,11 -7.094,11 -7.094,0 0,0"
                   style="fill:#84dcf2;fill-opacity:1;fill-rule:nonzero;stroke:none"
                   id="path100"
                   inkscape:connector-curvature="0" /></g><g
                 transform="translate(428.5176,203.4053)"
                 id="g102"><path
                   d="M 0,0 C 7.094,0 7.094,11 0,11 -7.094,11 -7.094,0 0,0"
                   style="fill:#84dcf2;fill-opacity:1;fill-rule:nonzero;stroke:none"
                   id="path104"
                   inkscape:connector-curvature="0" /></g><g
                 transform="translate(71.0181,198.5928)"
                 id="g106"><path
                   d="M 0,0 C 7.094,0 7.094,11 0,11 -7.094,11 -7.094,0 0,0"
                   style="fill:#84dcf2;fill-opacity:1;fill-rule:nonzero;stroke:none"
                   id="path108"
                   inkscape:connector-curvature="0" /></g><g
                 transform="translate(132.0684,401.269)"
                 id="g110"><path
                   d="M 0,0 C 3.547,0 3.547,5.5 0,5.5 -3.547,5.5 -3.547,0 0,0"
                   style="fill:#84dcf2;fill-opacity:1;fill-rule:nonzero;stroke:none"
                   id="path112"
                   inkscape:connector-curvature="0" /></g><g
                 transform="translate(429.2051,225.4053)"
                 id="g114"><path
                   d="M 0,0 C 3.547,0 3.547,5.5 0,5.5 -3.547,5.5 -3.547,0 0,0"
                   style="fill:#84dcf2;fill-opacity:1;fill-rule:nonzero;stroke:none"
                   id="path116"
                   inkscape:connector-curvature="0" /></g><g
                 transform="translate(87.5176,191.7178)"
                 id="g118"><path
                   d="M 0,0 C 3.547,0 3.547,5.5 0,5.5 -3.547,5.5 -3.547,0 0,0"
                   style="fill:#84dcf2;fill-opacity:1;fill-rule:nonzero;stroke:none"
                   id="path120"
                   inkscape:connector-curvature="0" /></g></g></g></g><g
           id="g122"
           transform="translate(166.0317,284.3203)"><path
             d="m 0,0 c -3.705,-1.309 -6.151,-1.559 -8.049,2.188 -1.462,2.886 -2.437,5.865 -4.277,8.566 -3.988,5.855 -7.85,6.247 -14.236,5.413 -6.338,-0.827 -14.984,0.792 -15.946,8.121 -0.685,5.224 -0.725,10.027 -3.013,14.914 -1.126,2.407 -4.682,0.312 -3.561,-2.082 2.537,-5.423 1.428,-11.326 3.285,-16.849 1.883,-5.604 8.157,-7.411 13.43,-8.041 3.985,-0.475 7.474,0.486 11.381,0.482 4.196,-0.005 7.061,-7.203 8.391,-10.362 2.772,-6.588 6.699,-8.798 13.692,-6.328 C 3.587,-3.098 2.515,0.888 0,0"
             style="fill:#1c1c1b;fill-opacity:1;fill-rule:nonzero;stroke:none"
             id="path124"
             inkscape:connector-curvature="0" /></g><g
           id="g126"
           transform="translate(122.4395,329.0894)"><path
             d="m 0,0 c -1.235,-1.618 -2.745,-2.628 -4.542,-3.533 -1.901,-0.958 -0.229,-3.804 1.666,-2.85 2.336,1.177 4.135,2.634 5.726,4.717 C 3.397,-0.949 2.962,0.179 2.258,0.592 1.409,1.088 0.545,0.713 0,0"
             style="fill:#1c1c1b;fill-opacity:1;fill-rule:nonzero;stroke:none"
             id="path128"
             inkscape:connector-curvature="0" /></g><g
           id="g130"
           transform="translate(116.5308,333.481)"><path
             d="m 0,0 c 0.009,-3.489 0.518,-6.959 0.55,-10.45 0.019,-2.127 3.319,-2.129 3.3,0 C 3.818,-6.959 3.309,-3.489 3.3,0 3.294,2.128 -0.006,2.128 0,0"
             style="fill:#1c1c1b;fill-opacity:1;fill-rule:nonzero;stroke:none"
             id="path132"
             inkscape:connector-curvature="0" /></g><g
           id="g134"
           transform="translate(110.9644,330.1143)"><path
             d="m 0,0 c 2.208,-2.76 4.45,-5.514 7.483,-7.408 1.811,-1.13 3.466,1.726 1.666,2.85 C 6.38,-2.829 4.347,-0.184 2.333,2.333 1.003,3.995 -1.315,1.644 0,0"
             style="fill:#1c1c1b;fill-opacity:1;fill-rule:nonzero;stroke:none"
             id="path136"
             inkscape:connector-curvature="0" /></g><g
           id="g138"
           transform="translate(108.2144,325.165)"><path
             d="m 0,0 c 3.07,-2.903 6.897,-3.865 10.955,-2.625 2.029,0.62 1.163,3.806 -0.877,3.183 C 7.148,-0.338 4.575,0.214 2.333,2.333 0.789,3.794 -1.549,1.464 0,0"
             style="fill:#1c1c1b;fill-opacity:1;fill-rule:nonzero;stroke:none"
             id="path140"
             inkscape:connector-curvature="0" /></g><g
           id="g142"
           transform="translate(334.7432,274.0815)"><path
             d="m 0,0 c 0.148,5.391 1.95,7.189 7.154,7.613 3.381,0.276 6.811,0.23 10.155,0.852 5.103,0.951 5.008,7.991 6.983,11.623 3.016,5.55 11.118,4.96 16.347,6.599 5.76,1.806 7.971,6.683 8.311,12.363 0.159,2.658 -3.967,2.643 -4.125,0 C 44.319,30.6 38.122,30.306 31.315,28.905 25.315,27.671 21.252,24.382 19.166,18.6 18.513,16.791 18.354,13.018 16.212,12.443 12.724,11.507 8.709,11.935 5.12,11.546 -1.624,10.815 -3.948,6.4 -4.125,0 -4.198,-2.662 -0.073,-2.654 0,0"
             style="fill:#1c1c1b;fill-opacity:1;fill-rule:nonzero;stroke:none"
             id="path144"
             inkscape:connector-curvature="0" /></g><g
           id="g146"
           transform="translate(373.9893,318.1929)"><path
             d="M 0,0 C 1.41,-3.362 3.84,-5.793 7.203,-7.203 8.034,-7.551 9.018,-6.833 9.232,-6.05 9.494,-5.099 8.909,-4.368 8.08,-4.02 5.911,-3.111 4.092,-1.292 3.182,0.877 2.834,1.706 2.104,2.292 1.152,2.03 0.369,1.814 -0.349,0.831 0,0"
             style="fill:#1c1c1b;fill-opacity:1;fill-rule:nonzero;stroke:none"
             id="path148"
             inkscape:connector-curvature="0" /></g><g
           id="g150"
           transform="translate(378.8799,322.481)"><path
             d="m 0,0 0,-8.25 c 0,-2.128 3.301,-2.128 3.301,0 l 0,8.25 C 3.301,2.128 0,2.128 0,0"
             style="fill:#1c1c1b;fill-opacity:1;fill-rule:nonzero;stroke:none"
             id="path152"
             inkscape:connector-curvature="0" /></g><g
           id="g154"
           transform="translate(384.4395,321.8198)"><path
             d="m 0,0 c -1,-2.885 -2.727,-5.056 -5.076,-6.972 -1.65,-1.346 0.7,-3.666 2.334,-2.333 2.797,2.282 4.74,5.014 5.924,8.428 C 3.881,1.139 0.692,1.998 0,0"
             style="fill:#1c1c1b;fill-opacity:1;fill-rule:nonzero;stroke:none"
             id="path156"
             inkscape:connector-curvature="0" /></g><g
           id="g158"
           transform="translate(388.4561,318.3638)"><path
             d="m 0,0 c -1.437,-2.279 -3.709,-3.735 -6.164,-4.742 -1.941,-0.796 -1.093,-3.989 0.877,-3.182 3.288,1.348 6.206,3.197 8.137,6.258 C 3.988,0.14 1.132,1.794 0,0"
             style="fill:#1c1c1b;fill-opacity:1;fill-rule:nonzero;stroke:none"
             id="path160"
             inkscape:connector-curvature="0" /></g><g
           id="g162"
           transform="translate(354.4082,214.3154)"><path
             d="m 0,0 c 0,-2.886 -21.604,-3.724 -23.939,-3.724 l -161.677,0 c -2.332,0 -23.94,0.838 -23.94,3.724 l 19.715,29.552 c 0,2.886 1.893,5.225 4.225,5.225 l 161.677,0 c 2.335,0 4.225,-2.339 4.225,-5.225 L 0,0 Z"
             style="fill:#b4b4b4;fill-opacity:1;fill-rule:nonzero;stroke:none"
             id="path164"
             inkscape:connector-curvature="0" /></g><g
           id="g166"
           transform="translate(216.3818,220.8984)"><path
             d="m 0,0 -41.552,0 7.271,17.6 37.582,0 L 0,0 Z"
             style="fill:#3c3c3a;fill-opacity:1;fill-rule:nonzero;stroke:none"
             id="path168"
             inkscape:connector-curvature="0" /></g><g
           id="g170"
           transform="translate(282.8789,220.8984)"><path
             d="m 0,0 41.552,0 -7.273,17.6 -37.58,0 L 0,0 Z"
             style="fill:#3c3c3a;fill-opacity:1;fill-rule:nonzero;stroke:none"
             id="path172"
             inkscape:connector-curvature="0" /></g><g
           id="g174"
           transform="translate(329.0488,220.8984)"><path
             d="M 0,0 14.632,0 2.659,17.6 -8.379,17.6 0,0 Z"
             style="fill:#3c3c3a;fill-opacity:1;fill-rule:nonzero;stroke:none"
             id="path176"
             inkscape:connector-curvature="0" /></g><g
           id="g178"
           transform="translate(170.2139,220.8984)"><path
             d="M 0,0 -14.633,0 -2.659,17.6 8.377,17.6 0,0 Z"
             style="fill:#3c3c3a;fill-opacity:1;fill-rule:nonzero;stroke:none"
             id="path180"
             inkscape:connector-curvature="0" /></g><g
           id="g182"
           transform="translate(279.2236,220.8984)"><path
             d="m 0,0 -59.188,0 3.3,17.6 52.588,0 L 0,0 Z"
             style="fill:#3c3c3a;fill-opacity:1;fill-rule:nonzero;stroke:none"
             id="path184"
             inkscape:connector-curvature="0" /></g><path
           d="m 340.07,232.592 -180.878,0 0,2.694 180.878,0 0,-2.694 z"
           style="fill:#b4b4b4;fill-opacity:1;fill-rule:nonzero;stroke:none"
           id="path186"
           inkscape:connector-curvature="0" /><path
           d="m 342.031,225.992 -184.8,0 0,2.694 184.8,0 0,-2.694 z"
           style="fill:#b4b4b4;fill-opacity:1;fill-rule:nonzero;stroke:none"
           id="path188"
           inkscape:connector-curvature="0" /><g
           id="g190"
           transform="translate(355.5146,207.4707)"><path
             d="m 0,0 c 0,-2.333 -0.483,-4.224 -2.814,-4.224 l -206.139,0 c -2.335,0 -2.816,1.891 -2.816,4.224 l 0,3.622 c 0,2.333 0.481,4.224 2.816,4.224 l 206.139,0 C -0.483,7.846 0,5.955 0,3.622 L 0,0 Z"
             style="fill:#3c3c3a;fill-opacity:1;fill-rule:nonzero;stroke:none"
             id="path192"
             inkscape:connector-curvature="0" /></g><g
           id="g194"
           transform="translate(288.2676,209.1807)"><path
             d="m 0,0 c 0,-1.215 -0.984,-2.2 -2.199,-2.2 l -72.875,0 c -1.216,0 -2.2,0.985 -2.2,2.2 0,1.215 0.984,2.2 2.2,2.2 l 72.875,0 C -0.984,2.2 0,1.215 0,0"
             style="fill:#707070;fill-opacity:1;fill-rule:nonzero;stroke:none"
             id="path196"
             inkscape:connector-curvature="0" /></g><g
           id="g198"
           transform="translate(336.8057,247.8564)"><path
             d="m 0,0 c 0,-2.333 -1.891,-4.226 -4.226,-4.226 l -165.899,0 c -2.334,0 -4.226,1.893 -4.226,4.226 l 0,108.233 c 0,2.333 1.892,4.225 4.226,4.225 l 165.899,0 c 2.335,0 4.226,-1.892 4.226,-4.225 L 0,0 Z"
             style="fill:#3c3c3a;fill-opacity:1;fill-rule:nonzero;stroke:none"
             id="path200"
             inkscape:connector-curvature="0" /></g><g
           id="g202"
           transform="translate(249.6309,354.4375)"><path
             d="M 0,0 C 2.271,0 2.271,3.521 0,3.521 -2.271,3.521 -2.271,0 0,0"
             style="fill:#ffffff;fill-opacity:1;fill-rule:nonzero;stroke:none"
             id="path204"
             inkscape:connector-curvature="0" /></g><g
           id="g206"
           transform="translate(324.6016,254.6597)"><path
             d="m 0,0 c 0,-2.007 -1.627,-3.634 -3.632,-3.634 l -142.677,0 c -2.005,0 -3.634,1.627 -3.634,3.634 l 0,93.077 c 0,2.007 1.629,3.634 3.634,3.634 l 142.677,0 C -1.627,96.711 0,95.084 0,93.077 L 0,0 Z"
             style="fill:#ffffff;fill-opacity:1;fill-rule:nonzero;stroke:none"
             id="path208"
             inkscape:connector-curvature="0" /></g><g
           id="g210"
           transform="translate(227.8037,313.644)"><path
             d="M 0,0 -12.446,-12.444"
             style="fill:none;stroke:#325975;stroke-width:3.29999995;stroke-linecap:round;stroke-linejoin:round;stroke-miterlimit:10;stroke-dasharray:none;stroke-opacity:1"
             id="path212"
             inkscape:connector-curvature="0" /></g><g
           id="g214"
           transform="translate(227.8037,301.1978)"><path
             d="M 0,0 -12.445,12.445"
             style="fill:none;stroke:#325975;stroke-width:3.29999995;stroke-linecap:round;stroke-linejoin:round;stroke-miterlimit:10;stroke-dasharray:none;stroke-opacity:1"
             id="path216"
             inkscape:connector-curvature="0" /></g><g
           id="g218"
           transform="translate(283.9033,313.644)"><path
             d="M 0,0 -12.446,-12.444"
             style="fill:none;stroke:#325975;stroke-width:3.29999995;stroke-linecap:round;stroke-linejoin:round;stroke-miterlimit:10;stroke-dasharray:none;stroke-opacity:1"
             id="path220"
             inkscape:connector-curvature="0" /></g><g
           id="g222"
           transform="translate(283.9033,301.1978)"><path
             d="M 0,0 -12.444,12.445"
             style="fill:none;stroke:#325975;stroke-width:3.29999995;stroke-linecap:round;stroke-linejoin:round;stroke-miterlimit:10;stroke-dasharray:none;stroke-opacity:1"
             id="path224"
             inkscape:connector-curvature="0" /></g><g
           id="g226"
           transform="translate(278.3174,286.1812)"><path
             d="m 0,0 0,-12.283 c 0,-2.431 -1.971,-4.401 -4.4,-4.401 l -2.373,0 c -2.43,0 -4.401,1.97 -4.401,4.401 l 0,12.283"
             style="fill:#f29bb4;fill-opacity:1;fill-rule:nonzero;stroke:none"
             id="path228"
             inkscape:connector-curvature="0" /></g><g
           id="g230"
           transform="translate(274.6602,285.5396)"><path
             d="M 0,0 -1.93,-14.3 -3.859,0 0,0 Z"
             style="fill:#ef82a2;fill-opacity:1;fill-rule:nonzero;stroke:none"
             id="path232"
             inkscape:connector-curvature="0" /></g><g
           id="g234"
           transform="translate(212.3369,286.1948)"><path
             d="M 0,0 74.587,0"
             style="fill:none;stroke:#325975;stroke-width:2.75;stroke-linecap:round;stroke-linejoin:round;stroke-miterlimit:10;stroke-dasharray:none;stroke-opacity:1"
             id="path236"
             inkscape:connector-curvature="0" /></g><g
           id="g238"
           transform="translate(200.1309,288.0142)"><path
             d="M 0,0 C 7.094,0 7.094,11 0,11 -7.094,11 -7.094,0 0,0"
             style="fill:#f7c3d2;fill-opacity:1;fill-rule:nonzero;stroke:none"
             id="path240"
             inkscape:connector-curvature="0" /></g><g
           id="g242"
           transform="translate(299.1309,288.0142)"><path
             d="M 0,0 C 7.094,0 7.094,11 0,11 -7.094,11 -7.094,0 0,0"
             style="fill:#f7c3d2;fill-opacity:1;fill-rule:nonzero;stroke:none"
             id="path244"
             inkscape:connector-curvature="0" /></g><g
           id="g246"
           transform="translate(308.4805,374.731)"><path
             d="m 0,0 0,-36.3 c 0,-3.547 5.5,-3.547 5.5,0 L 5.5,0 C 5.5,3.547 0,3.547 0,0"
             style="fill:#f29101;fill-opacity:1;fill-rule:nonzero;stroke:none"
             id="path248"
             inkscape:connector-curvature="0" /></g><g
           id="g250"
           transform="translate(311.2305,324.4058)"><path
             d="M 0,0 C 5.32,0 5.32,8.25 0,8.25 -5.32,8.25 -5.32,0 0,0"
             style="fill:#f29101;fill-opacity:1;fill-rule:nonzero;stroke:none"
             id="path252"
             inkscape:connector-curvature="0" /></g></g></g></g></svg>